<?xml version="1.0" encoding="utf-8" standalone="no"?>
<!DOCTYPE svg PUBLIC "-//W3C//DTD SVG 1.1//EN"
  "http://www.w3.org/Graphics/SVG/1.1/DTD/svg11.dtd">
<svg xmlns:xlink="http://www.w3.org/1999/xlink" width="1440pt" height="864pt" viewBox="0 0 1440 864" xmlns="http://www.w3.org/2000/svg" version="1.1">
 <metadata>
  <rdf:RDF xmlns:dc="http://purl.org/dc/elements/1.1/" xmlns:cc="http://creativecommons.org/ns#" xmlns:rdf="http://www.w3.org/1999/02/22-rdf-syntax-ns#">
   <cc:Work>
    <dc:type rdf:resource="http://purl.org/dc/dcmitype/StillImage"/>
    <dc:date>2023-04-14T22:28:54.654702</dc:date>
    <dc:format>image/svg+xml</dc:format>
    <dc:creator>
     <cc:Agent>
      <dc:title>Matplotlib v3.5.1, https://matplotlib.org/</dc:title>
     </cc:Agent>
    </dc:creator>
   </cc:Work>
  </rdf:RDF>
 </metadata>
 <defs>
  <style type="text/css">*{stroke-linejoin: round; stroke-linecap: butt}</style>
 </defs>
 <g id="figure_1">
  <g id="patch_1">
   <path d="M 0 864 
L 1440 864 
L 1440 0 
L 0 0 
z
" style="fill: #ffffff"/>
  </g>
  <g id="axes_1">
   <g id="patch_2">
    <path d="M 180 768.96 
L 1296 768.96 
L 1296 103.68 
L 180 103.68 
z
" style="fill: #ffffff"/>
   </g>
   <g id="matplotlib.axis_1">
    <g id="xtick_1">
     <g id="line2d_1">
      <path d="M 230.727273 768.96 
L 230.727273 103.68 
" clip-path="url(#p6ee28c85b7)" style="fill: none; stroke: #b0b0b0; stroke-width: 0.8; stroke-linecap: square"/>
     </g>
     <g id="line2d_2">
      <defs>
       <path id="m8ffe2b6d10" d="M 0 0 
L 0 3.5 
" style="stroke: #000000; stroke-width: 0.8"/>
      </defs>
      <g>
       <use xlink:href="#m8ffe2b6d10" x="230.727273" y="768.96" style="stroke: #000000; stroke-width: 0.8"/>
      </g>
     </g>
     <g id="text_1">
      <!-- 0 -->
      <g transform="translate(219.592898 802.554531)scale(0.35 -0.35)">
       <defs>
        <path id="DejaVuSans-30" d="M 2034 4250 
Q 1547 4250 1301 3770 
Q 1056 3291 1056 2328 
Q 1056 1369 1301 889 
Q 1547 409 2034 409 
Q 2525 409 2770 889 
Q 3016 1369 3016 2328 
Q 3016 3291 2770 3770 
Q 2525 4250 2034 4250 
z
M 2034 4750 
Q 2819 4750 3233 4129 
Q 3647 3509 3647 2328 
Q 3647 1150 3233 529 
Q 2819 -91 2034 -91 
Q 1250 -91 836 529 
Q 422 1150 422 2328 
Q 422 3509 836 4129 
Q 1250 4750 2034 4750 
z
" transform="scale(0.015625)"/>
       </defs>
       <use xlink:href="#DejaVuSans-30"/>
      </g>
     </g>
    </g>
    <g id="xtick_2">
     <g id="line2d_3">
      <path d="M 437.777365 768.96 
L 437.777365 103.68 
" clip-path="url(#p6ee28c85b7)" style="fill: none; stroke: #b0b0b0; stroke-width: 0.8; stroke-linecap: square"/>
     </g>
     <g id="line2d_4">
      <g>
       <use xlink:href="#m8ffe2b6d10" x="437.777365" y="768.96" style="stroke: #000000; stroke-width: 0.8"/>
      </g>
     </g>
     <g id="text_2">
      <!-- 10 -->
      <g transform="translate(415.508615 802.554531)scale(0.35 -0.35)">
       <defs>
        <path id="DejaVuSans-31" d="M 794 531 
L 1825 531 
L 1825 4091 
L 703 3866 
L 703 4441 
L 1819 4666 
L 2450 4666 
L 2450 531 
L 3481 531 
L 3481 0 
L 794 0 
L 794 531 
z
" transform="scale(0.015625)"/>
       </defs>
       <use xlink:href="#DejaVuSans-31"/>
       <use xlink:href="#DejaVuSans-30" x="63.623047"/>
      </g>
     </g>
    </g>
    <g id="xtick_3">
     <g id="line2d_5">
      <path d="M 644.827458 768.96 
L 644.827458 103.68 
" clip-path="url(#p6ee28c85b7)" style="fill: none; stroke: #b0b0b0; stroke-width: 0.8; stroke-linecap: square"/>
     </g>
     <g id="line2d_6">
      <g>
       <use xlink:href="#m8ffe2b6d10" x="644.827458" y="768.96" style="stroke: #000000; stroke-width: 0.8"/>
      </g>
     </g>
     <g id="text_3">
      <!-- 20 -->
      <g transform="translate(622.558708 802.554531)scale(0.35 -0.35)">
       <defs>
        <path id="DejaVuSans-32" d="M 1228 531 
L 3431 531 
L 3431 0 
L 469 0 
L 469 531 
Q 828 903 1448 1529 
Q 2069 2156 2228 2338 
Q 2531 2678 2651 2914 
Q 2772 3150 2772 3378 
Q 2772 3750 2511 3984 
Q 2250 4219 1831 4219 
Q 1534 4219 1204 4116 
Q 875 4013 500 3803 
L 500 4441 
Q 881 4594 1212 4672 
Q 1544 4750 1819 4750 
Q 2544 4750 2975 4387 
Q 3406 4025 3406 3419 
Q 3406 3131 3298 2873 
Q 3191 2616 2906 2266 
Q 2828 2175 2409 1742 
Q 1991 1309 1228 531 
z
" transform="scale(0.015625)"/>
       </defs>
       <use xlink:href="#DejaVuSans-32"/>
       <use xlink:href="#DejaVuSans-30" x="63.623047"/>
      </g>
     </g>
    </g>
    <g id="xtick_4">
     <g id="line2d_7">
      <path d="M 851.877551 768.96 
L 851.877551 103.68 
" clip-path="url(#p6ee28c85b7)" style="fill: none; stroke: #b0b0b0; stroke-width: 0.8; stroke-linecap: square"/>
     </g>
     <g id="line2d_8">
      <g>
       <use xlink:href="#m8ffe2b6d10" x="851.877551" y="768.96" style="stroke: #000000; stroke-width: 0.8"/>
      </g>
     </g>
     <g id="text_4">
      <!-- 30 -->
      <g transform="translate(829.608801 802.554531)scale(0.35 -0.35)">
       <defs>
        <path id="DejaVuSans-33" d="M 2597 2516 
Q 3050 2419 3304 2112 
Q 3559 1806 3559 1356 
Q 3559 666 3084 287 
Q 2609 -91 1734 -91 
Q 1441 -91 1130 -33 
Q 819 25 488 141 
L 488 750 
Q 750 597 1062 519 
Q 1375 441 1716 441 
Q 2309 441 2620 675 
Q 2931 909 2931 1356 
Q 2931 1769 2642 2001 
Q 2353 2234 1838 2234 
L 1294 2234 
L 1294 2753 
L 1863 2753 
Q 2328 2753 2575 2939 
Q 2822 3125 2822 3475 
Q 2822 3834 2567 4026 
Q 2313 4219 1838 4219 
Q 1578 4219 1281 4162 
Q 984 4106 628 3988 
L 628 4550 
Q 988 4650 1302 4700 
Q 1616 4750 1894 4750 
Q 2613 4750 3031 4423 
Q 3450 4097 3450 3541 
Q 3450 3153 3228 2886 
Q 3006 2619 2597 2516 
z
" transform="scale(0.015625)"/>
       </defs>
       <use xlink:href="#DejaVuSans-33"/>
       <use xlink:href="#DejaVuSans-30" x="63.623047"/>
      </g>
     </g>
    </g>
    <g id="xtick_5">
     <g id="line2d_9">
      <path d="M 1058.927644 768.96 
L 1058.927644 103.68 
" clip-path="url(#p6ee28c85b7)" style="fill: none; stroke: #b0b0b0; stroke-width: 0.8; stroke-linecap: square"/>
     </g>
     <g id="line2d_10">
      <g>
       <use xlink:href="#m8ffe2b6d10" x="1058.927644" y="768.96" style="stroke: #000000; stroke-width: 0.8"/>
      </g>
     </g>
     <g id="text_5">
      <!-- 40 -->
      <g transform="translate(1036.658894 802.554531)scale(0.35 -0.35)">
       <defs>
        <path id="DejaVuSans-34" d="M 2419 4116 
L 825 1625 
L 2419 1625 
L 2419 4116 
z
M 2253 4666 
L 3047 4666 
L 3047 1625 
L 3713 1625 
L 3713 1100 
L 3047 1100 
L 3047 0 
L 2419 0 
L 2419 1100 
L 313 1100 
L 313 1709 
L 2253 4666 
z
" transform="scale(0.015625)"/>
       </defs>
       <use xlink:href="#DejaVuSans-34"/>
       <use xlink:href="#DejaVuSans-30" x="63.623047"/>
      </g>
     </g>
    </g>
    <g id="xtick_6">
     <g id="line2d_11">
      <path d="M 1265.977737 768.96 
L 1265.977737 103.68 
" clip-path="url(#p6ee28c85b7)" style="fill: none; stroke: #b0b0b0; stroke-width: 0.8; stroke-linecap: square"/>
     </g>
     <g id="line2d_12">
      <g>
       <use xlink:href="#m8ffe2b6d10" x="1265.977737" y="768.96" style="stroke: #000000; stroke-width: 0.8"/>
      </g>
     </g>
     <g id="text_6">
      <!-- 50 -->
      <g transform="translate(1243.708987 802.554531)scale(0.35 -0.35)">
       <defs>
        <path id="DejaVuSans-35" d="M 691 4666 
L 3169 4666 
L 3169 4134 
L 1269 4134 
L 1269 2991 
Q 1406 3038 1543 3061 
Q 1681 3084 1819 3084 
Q 2600 3084 3056 2656 
Q 3513 2228 3513 1497 
Q 3513 744 3044 326 
Q 2575 -91 1722 -91 
Q 1428 -91 1123 -41 
Q 819 9 494 109 
L 494 744 
Q 775 591 1075 516 
Q 1375 441 1709 441 
Q 2250 441 2565 725 
Q 2881 1009 2881 1497 
Q 2881 1984 2565 2268 
Q 2250 2553 1709 2553 
Q 1456 2553 1204 2497 
Q 953 2441 691 2322 
L 691 4666 
z
" transform="scale(0.015625)"/>
       </defs>
       <use xlink:href="#DejaVuSans-35"/>
       <use xlink:href="#DejaVuSans-30" x="63.623047"/>
      </g>
     </g>
    </g>
    <g id="text_7">
     <!-- Points -->
     <g transform="translate(685.445312 840.427969)scale(0.35 -0.35)">
      <defs>
       <path id="DejaVuSans-50" d="M 1259 4147 
L 1259 2394 
L 2053 2394 
Q 2494 2394 2734 2622 
Q 2975 2850 2975 3272 
Q 2975 3691 2734 3919 
Q 2494 4147 2053 4147 
L 1259 4147 
z
M 628 4666 
L 2053 4666 
Q 2838 4666 3239 4311 
Q 3641 3956 3641 3272 
Q 3641 2581 3239 2228 
Q 2838 1875 2053 1875 
L 1259 1875 
L 1259 0 
L 628 0 
L 628 4666 
z
" transform="scale(0.015625)"/>
       <path id="DejaVuSans-6f" d="M 1959 3097 
Q 1497 3097 1228 2736 
Q 959 2375 959 1747 
Q 959 1119 1226 758 
Q 1494 397 1959 397 
Q 2419 397 2687 759 
Q 2956 1122 2956 1747 
Q 2956 2369 2687 2733 
Q 2419 3097 1959 3097 
z
M 1959 3584 
Q 2709 3584 3137 3096 
Q 3566 2609 3566 1747 
Q 3566 888 3137 398 
Q 2709 -91 1959 -91 
Q 1206 -91 779 398 
Q 353 888 353 1747 
Q 353 2609 779 3096 
Q 1206 3584 1959 3584 
z
" transform="scale(0.015625)"/>
       <path id="DejaVuSans-69" d="M 603 3500 
L 1178 3500 
L 1178 0 
L 603 0 
L 603 3500 
z
M 603 4863 
L 1178 4863 
L 1178 4134 
L 603 4134 
L 603 4863 
z
" transform="scale(0.015625)"/>
       <path id="DejaVuSans-6e" d="M 3513 2113 
L 3513 0 
L 2938 0 
L 2938 2094 
Q 2938 2591 2744 2837 
Q 2550 3084 2163 3084 
Q 1697 3084 1428 2787 
Q 1159 2491 1159 1978 
L 1159 0 
L 581 0 
L 581 3500 
L 1159 3500 
L 1159 2956 
Q 1366 3272 1645 3428 
Q 1925 3584 2291 3584 
Q 2894 3584 3203 3211 
Q 3513 2838 3513 2113 
z
" transform="scale(0.015625)"/>
       <path id="DejaVuSans-74" d="M 1172 4494 
L 1172 3500 
L 2356 3500 
L 2356 3053 
L 1172 3053 
L 1172 1153 
Q 1172 725 1289 603 
Q 1406 481 1766 481 
L 2356 481 
L 2356 0 
L 1766 0 
Q 1100 0 847 248 
Q 594 497 594 1153 
L 594 3053 
L 172 3053 
L 172 3500 
L 594 3500 
L 594 4494 
L 1172 4494 
z
" transform="scale(0.015625)"/>
       <path id="DejaVuSans-73" d="M 2834 3397 
L 2834 2853 
Q 2591 2978 2328 3040 
Q 2066 3103 1784 3103 
Q 1356 3103 1142 2972 
Q 928 2841 928 2578 
Q 928 2378 1081 2264 
Q 1234 2150 1697 2047 
L 1894 2003 
Q 2506 1872 2764 1633 
Q 3022 1394 3022 966 
Q 3022 478 2636 193 
Q 2250 -91 1575 -91 
Q 1294 -91 989 -36 
Q 684 19 347 128 
L 347 722 
Q 666 556 975 473 
Q 1284 391 1588 391 
Q 1994 391 2212 530 
Q 2431 669 2431 922 
Q 2431 1156 2273 1281 
Q 2116 1406 1581 1522 
L 1381 1569 
Q 847 1681 609 1914 
Q 372 2147 372 2553 
Q 372 3047 722 3315 
Q 1072 3584 1716 3584 
Q 2034 3584 2315 3537 
Q 2597 3491 2834 3397 
z
" transform="scale(0.015625)"/>
      </defs>
      <use xlink:href="#DejaVuSans-50"/>
      <use xlink:href="#DejaVuSans-6f" x="56.677734"/>
      <use xlink:href="#DejaVuSans-69" x="117.859375"/>
      <use xlink:href="#DejaVuSans-6e" x="145.642578"/>
      <use xlink:href="#DejaVuSans-74" x="209.021484"/>
      <use xlink:href="#DejaVuSans-73" x="248.230469"/>
     </g>
    </g>
   </g>
   <g id="matplotlib.axis_2">
    <g id="ytick_1">
     <g id="line2d_13">
      <path d="M 180 739.376247 
L 1296 739.376247 
" clip-path="url(#p6ee28c85b7)" style="fill: none; stroke: #b0b0b0; stroke-width: 0.8; stroke-linecap: square"/>
     </g>
     <g id="line2d_14">
      <defs>
       <path id="m207ba6c43c" d="M 0 0 
L -3.5 0 
" style="stroke: #000000; stroke-width: 0.8"/>
      </defs>
      <g>
       <use xlink:href="#m207ba6c43c" x="180" y="739.376247" style="stroke: #000000; stroke-width: 0.8"/>
      </g>
     </g>
     <g id="text_8">
      <!-- 0.0 -->
      <g transform="translate(117.339063 752.673512)scale(0.35 -0.35)">
       <defs>
        <path id="DejaVuSans-2e" d="M 684 794 
L 1344 794 
L 1344 0 
L 684 0 
L 684 794 
z
" transform="scale(0.015625)"/>
       </defs>
       <use xlink:href="#DejaVuSans-30"/>
       <use xlink:href="#DejaVuSans-2e" x="63.623047"/>
       <use xlink:href="#DejaVuSans-30" x="95.410156"/>
      </g>
     </g>
    </g>
    <g id="ytick_2">
     <g id="line2d_15">
      <path d="M 180 641.159256 
L 1296 641.159256 
" clip-path="url(#p6ee28c85b7)" style="fill: none; stroke: #b0b0b0; stroke-width: 0.8; stroke-linecap: square"/>
     </g>
     <g id="line2d_16">
      <g>
       <use xlink:href="#m207ba6c43c" x="180" y="641.159256" style="stroke: #000000; stroke-width: 0.8"/>
      </g>
     </g>
     <g id="text_9">
      <!-- 0.5 -->
      <g transform="translate(117.339063 654.456522)scale(0.35 -0.35)">
       <use xlink:href="#DejaVuSans-30"/>
       <use xlink:href="#DejaVuSans-2e" x="63.623047"/>
       <use xlink:href="#DejaVuSans-35" x="95.410156"/>
      </g>
     </g>
    </g>
    <g id="ytick_3">
     <g id="line2d_17">
      <path d="M 180 542.942265 
L 1296 542.942265 
" clip-path="url(#p6ee28c85b7)" style="fill: none; stroke: #b0b0b0; stroke-width: 0.8; stroke-linecap: square"/>
     </g>
     <g id="line2d_18">
      <g>
       <use xlink:href="#m207ba6c43c" x="180" y="542.942265" style="stroke: #000000; stroke-width: 0.8"/>
      </g>
     </g>
     <g id="text_10">
      <!-- 1.0 -->
      <g transform="translate(117.339063 556.239531)scale(0.35 -0.35)">
       <use xlink:href="#DejaVuSans-31"/>
       <use xlink:href="#DejaVuSans-2e" x="63.623047"/>
       <use xlink:href="#DejaVuSans-30" x="95.410156"/>
      </g>
     </g>
    </g>
    <g id="ytick_4">
     <g id="line2d_19">
      <path d="M 180 444.725275 
L 1296 444.725275 
" clip-path="url(#p6ee28c85b7)" style="fill: none; stroke: #b0b0b0; stroke-width: 0.8; stroke-linecap: square"/>
     </g>
     <g id="line2d_20">
      <g>
       <use xlink:href="#m207ba6c43c" x="180" y="444.725275" style="stroke: #000000; stroke-width: 0.8"/>
      </g>
     </g>
     <g id="text_11">
      <!-- 1.5 -->
      <g transform="translate(117.339063 458.02254)scale(0.35 -0.35)">
       <use xlink:href="#DejaVuSans-31"/>
       <use xlink:href="#DejaVuSans-2e" x="63.623047"/>
       <use xlink:href="#DejaVuSans-35" x="95.410156"/>
      </g>
     </g>
    </g>
    <g id="ytick_5">
     <g id="line2d_21">
      <path d="M 180 346.508284 
L 1296 346.508284 
" clip-path="url(#p6ee28c85b7)" style="fill: none; stroke: #b0b0b0; stroke-width: 0.8; stroke-linecap: square"/>
     </g>
     <g id="line2d_22">
      <g>
       <use xlink:href="#m207ba6c43c" x="180" y="346.508284" style="stroke: #000000; stroke-width: 0.8"/>
      </g>
     </g>
     <g id="text_12">
      <!-- 2.0 -->
      <g transform="translate(117.339063 359.80555)scale(0.35 -0.35)">
       <use xlink:href="#DejaVuSans-32"/>
       <use xlink:href="#DejaVuSans-2e" x="63.623047"/>
       <use xlink:href="#DejaVuSans-30" x="95.410156"/>
      </g>
     </g>
    </g>
    <g id="ytick_6">
     <g id="line2d_23">
      <path d="M 180 248.291293 
L 1296 248.291293 
" clip-path="url(#p6ee28c85b7)" style="fill: none; stroke: #b0b0b0; stroke-width: 0.8; stroke-linecap: square"/>
     </g>
     <g id="line2d_24">
      <g>
       <use xlink:href="#m207ba6c43c" x="180" y="248.291293" style="stroke: #000000; stroke-width: 0.8"/>
      </g>
     </g>
     <g id="text_13">
      <!-- 2.5 -->
      <g transform="translate(117.339063 261.588559)scale(0.35 -0.35)">
       <use xlink:href="#DejaVuSans-32"/>
       <use xlink:href="#DejaVuSans-2e" x="63.623047"/>
       <use xlink:href="#DejaVuSans-35" x="95.410156"/>
      </g>
     </g>
    </g>
    <g id="ytick_7">
     <g id="line2d_25">
      <path d="M 180 150.074303 
L 1296 150.074303 
" clip-path="url(#p6ee28c85b7)" style="fill: none; stroke: #b0b0b0; stroke-width: 0.8; stroke-linecap: square"/>
     </g>
     <g id="line2d_26">
      <g>
       <use xlink:href="#m207ba6c43c" x="180" y="150.074303" style="stroke: #000000; stroke-width: 0.8"/>
      </g>
     </g>
     <g id="text_14">
      <!-- 3.0 -->
      <g transform="translate(117.339063 163.371568)scale(0.35 -0.35)">
       <use xlink:href="#DejaVuSans-33"/>
       <use xlink:href="#DejaVuSans-2e" x="63.623047"/>
       <use xlink:href="#DejaVuSans-30" x="95.410156"/>
      </g>
     </g>
    </g>
    <g id="text_15">
     <!-- Joint values error (°) -->
     <g transform="translate(106.060156 613.370781)rotate(-90)scale(0.35 -0.35)">
      <defs>
       <path id="DejaVuSans-4a" d="M 628 4666 
L 1259 4666 
L 1259 325 
Q 1259 -519 939 -900 
Q 619 -1281 -91 -1281 
L -331 -1281 
L -331 -750 
L -134 -750 
Q 284 -750 456 -515 
Q 628 -281 628 325 
L 628 4666 
z
" transform="scale(0.015625)"/>
       <path id="DejaVuSans-20" transform="scale(0.015625)"/>
       <path id="DejaVuSans-76" d="M 191 3500 
L 800 3500 
L 1894 563 
L 2988 3500 
L 3597 3500 
L 2284 0 
L 1503 0 
L 191 3500 
z
" transform="scale(0.015625)"/>
       <path id="DejaVuSans-61" d="M 2194 1759 
Q 1497 1759 1228 1600 
Q 959 1441 959 1056 
Q 959 750 1161 570 
Q 1363 391 1709 391 
Q 2188 391 2477 730 
Q 2766 1069 2766 1631 
L 2766 1759 
L 2194 1759 
z
M 3341 1997 
L 3341 0 
L 2766 0 
L 2766 531 
Q 2569 213 2275 61 
Q 1981 -91 1556 -91 
Q 1019 -91 701 211 
Q 384 513 384 1019 
Q 384 1609 779 1909 
Q 1175 2209 1959 2209 
L 2766 2209 
L 2766 2266 
Q 2766 2663 2505 2880 
Q 2244 3097 1772 3097 
Q 1472 3097 1187 3025 
Q 903 2953 641 2809 
L 641 3341 
Q 956 3463 1253 3523 
Q 1550 3584 1831 3584 
Q 2591 3584 2966 3190 
Q 3341 2797 3341 1997 
z
" transform="scale(0.015625)"/>
       <path id="DejaVuSans-6c" d="M 603 4863 
L 1178 4863 
L 1178 0 
L 603 0 
L 603 4863 
z
" transform="scale(0.015625)"/>
       <path id="DejaVuSans-75" d="M 544 1381 
L 544 3500 
L 1119 3500 
L 1119 1403 
Q 1119 906 1312 657 
Q 1506 409 1894 409 
Q 2359 409 2629 706 
Q 2900 1003 2900 1516 
L 2900 3500 
L 3475 3500 
L 3475 0 
L 2900 0 
L 2900 538 
Q 2691 219 2414 64 
Q 2138 -91 1772 -91 
Q 1169 -91 856 284 
Q 544 659 544 1381 
z
M 1991 3584 
L 1991 3584 
z
" transform="scale(0.015625)"/>
       <path id="DejaVuSans-65" d="M 3597 1894 
L 3597 1613 
L 953 1613 
Q 991 1019 1311 708 
Q 1631 397 2203 397 
Q 2534 397 2845 478 
Q 3156 559 3463 722 
L 3463 178 
Q 3153 47 2828 -22 
Q 2503 -91 2169 -91 
Q 1331 -91 842 396 
Q 353 884 353 1716 
Q 353 2575 817 3079 
Q 1281 3584 2069 3584 
Q 2775 3584 3186 3129 
Q 3597 2675 3597 1894 
z
M 3022 2063 
Q 3016 2534 2758 2815 
Q 2500 3097 2075 3097 
Q 1594 3097 1305 2825 
Q 1016 2553 972 2059 
L 3022 2063 
z
" transform="scale(0.015625)"/>
       <path id="DejaVuSans-72" d="M 2631 2963 
Q 2534 3019 2420 3045 
Q 2306 3072 2169 3072 
Q 1681 3072 1420 2755 
Q 1159 2438 1159 1844 
L 1159 0 
L 581 0 
L 581 3500 
L 1159 3500 
L 1159 2956 
Q 1341 3275 1631 3429 
Q 1922 3584 2338 3584 
Q 2397 3584 2469 3576 
Q 2541 3569 2628 3553 
L 2631 2963 
z
" transform="scale(0.015625)"/>
       <path id="DejaVuSans-28" d="M 1984 4856 
Q 1566 4138 1362 3434 
Q 1159 2731 1159 2009 
Q 1159 1288 1364 580 
Q 1569 -128 1984 -844 
L 1484 -844 
Q 1016 -109 783 600 
Q 550 1309 550 2009 
Q 550 2706 781 3412 
Q 1013 4119 1484 4856 
L 1984 4856 
z
" transform="scale(0.015625)"/>
       <path id="DejaVuSans-b0" d="M 1600 4347 
Q 1350 4347 1178 4173 
Q 1006 4000 1006 3750 
Q 1006 3503 1178 3333 
Q 1350 3163 1600 3163 
Q 1850 3163 2022 3333 
Q 2194 3503 2194 3750 
Q 2194 3997 2020 4172 
Q 1847 4347 1600 4347 
z
M 1600 4750 
Q 1800 4750 1984 4673 
Q 2169 4597 2303 4453 
Q 2447 4313 2519 4134 
Q 2591 3956 2591 3750 
Q 2591 3338 2302 3052 
Q 2013 2766 1594 2766 
Q 1172 2766 890 3047 
Q 609 3328 609 3750 
Q 609 4169 896 4459 
Q 1184 4750 1600 4750 
z
" transform="scale(0.015625)"/>
       <path id="DejaVuSans-29" d="M 513 4856 
L 1013 4856 
Q 1481 4119 1714 3412 
Q 1947 2706 1947 2009 
Q 1947 1309 1714 600 
Q 1481 -109 1013 -844 
L 513 -844 
Q 928 -128 1133 580 
Q 1338 1288 1338 2009 
Q 1338 2731 1133 3434 
Q 928 4138 513 4856 
z
" transform="scale(0.015625)"/>
      </defs>
      <use xlink:href="#DejaVuSans-4a"/>
      <use xlink:href="#DejaVuSans-6f" x="29.492188"/>
      <use xlink:href="#DejaVuSans-69" x="90.673828"/>
      <use xlink:href="#DejaVuSans-6e" x="118.457031"/>
      <use xlink:href="#DejaVuSans-74" x="181.835938"/>
      <use xlink:href="#DejaVuSans-20" x="221.044922"/>
      <use xlink:href="#DejaVuSans-76" x="252.832031"/>
      <use xlink:href="#DejaVuSans-61" x="312.011719"/>
      <use xlink:href="#DejaVuSans-6c" x="373.291016"/>
      <use xlink:href="#DejaVuSans-75" x="401.074219"/>
      <use xlink:href="#DejaVuSans-65" x="464.453125"/>
      <use xlink:href="#DejaVuSans-73" x="525.976562"/>
      <use xlink:href="#DejaVuSans-20" x="578.076172"/>
      <use xlink:href="#DejaVuSans-65" x="609.863281"/>
      <use xlink:href="#DejaVuSans-72" x="671.386719"/>
      <use xlink:href="#DejaVuSans-72" x="710.75"/>
      <use xlink:href="#DejaVuSans-6f" x="749.613281"/>
      <use xlink:href="#DejaVuSans-72" x="810.794922"/>
      <use xlink:href="#DejaVuSans-20" x="851.908203"/>
      <use xlink:href="#DejaVuSans-28" x="883.695312"/>
      <use xlink:href="#DejaVuSans-b0" x="922.708984"/>
      <use xlink:href="#DejaVuSans-29" x="972.708984"/>
     </g>
    </g>
   </g>
   <g id="line2d_27">
    <path d="M 230.727273 716.998178 
L 251.432282 715.52798 
L 272.137291 697.698365 
L 292.842301 684.68861 
L 313.54731 687.724839 
L 334.252319 701.989298 
L 354.957328 720.961829 
L 375.662338 738.186323 
L 396.367347 728.64288 
L 417.072356 735.02212 
L 437.777365 697.847211 
L 458.482375 658.286554 
L 479.187384 638.726901 
L 499.892393 647.718482 
L 520.597403 677.006094 
L 541.302412 716.718484 
L 562.007421 716.665048 
L 582.71243 680.559663 
L 603.41744 665.608803 
L 624.122449 660.841038 
L 644.827458 656.551013 
L 665.532468 656.253917 
L 686.237477 663.608869 
L 706.942486 677.258441 
L 727.647495 692.339725 
L 748.352505 701.721687 
L 769.057514 702.003238 
L 789.762523 693.803454 
L 810.467532 681.152134 
L 831.172542 668.819758 
L 851.877551 660.612018 
L 872.58256 658.00796 
L 893.28757 659.609382 
L 913.992579 661.482441 
L 934.697588 659.340416 
L 955.402597 651.778372 
L 976.107607 640.642791 
L 996.812616 629.925283 
L 1017.517625 623.680038 
L 1038.222635 624.353313 
L 1058.927644 631.001934 
L 1079.632653 640.476239 
L 1100.337662 649.252174 
L 1121.042672 655.280598 
L 1141.747681 658.0942 
L 1162.45269 658.767199 
L 1183.157699 657.836316 
L 1203.862709 655.072781 
L 1224.567718 650.714277 
L 1245.272727 636.898263 
" clip-path="url(#p6ee28c85b7)" style="fill: none; stroke: #ff0000; stroke-width: 3; stroke-linecap: square"/>
   </g>
   <g id="line2d_28">
    <path d="M 230.727273 737.871407 
L 251.432282 736.463667 
L 272.137291 730.218674 
L 292.842301 724.621039 
L 313.54731 720.032951 
L 334.252319 715.03161 
L 354.957328 709.123195 
L 375.662338 703.027254 
L 396.367347 696.456684 
L 417.072356 691.443621 
L 437.777365 689.287582 
L 458.482375 690.194298 
L 479.187384 692.25646 
L 499.892393 688.069854 
L 520.597403 674.449639 
L 541.302412 658.001809 
L 562.007421 639.226795 
L 582.71243 628.952119 
L 603.41744 641.298871 
L 624.122449 670.272705 
L 644.827458 702.666944 
L 665.532468 724.105882 
L 686.237477 733.760454 
L 706.942486 737.225744 
L 727.647495 736.81701 
L 748.352505 732.895089 
L 769.057514 732.157811 
L 789.762523 734.860454 
L 810.467532 738.314808 
L 831.172542 738.516101 
L 851.877551 735.806476 
L 872.58256 732.807048 
L 893.28757 730.800873 
L 913.992579 729.906353 
L 934.697588 729.379813 
L 955.402597 729.544247 
L 976.107607 731.874108 
L 996.812616 736.843705 
L 1017.517625 733.301198 
L 1038.222635 724.019344 
L 1058.927644 714.791007 
L 1079.632653 707.663648 
L 1100.337662 704.299159 
L 1121.042672 704.408043 
L 1141.747681 707.429201 
L 1162.45269 708.935415 
L 1183.157699 706.219987 
L 1203.862709 704.210929 
L 1224.567718 717.803452 
L 1245.272727 726.000491 
" clip-path="url(#p6ee28c85b7)" style="fill: none; stroke-dasharray: 3,4.95; stroke-dashoffset: 0; stroke: #008000; stroke-width: 3"/>
   </g>
   <g id="line2d_29">
    <path d="M 230.727273 681.472381 
L 251.432282 686.139257 
L 272.137291 690.980504 
L 292.842301 698.3342 
L 313.54731 709.427938 
L 334.252319 721.440355 
L 354.957328 733.081154 
L 375.662338 736.905409 
L 396.367347 730.730572 
L 417.072356 726.676049 
L 437.777365 726.69473 
L 458.482375 732.357811 
L 479.187384 738.141502 
L 499.892393 730.208185 
L 520.597403 727.488004 
L 541.302412 731.658531 
L 562.007421 734.906193 
L 582.71243 737.699728 
L 603.41744 734.341445 
L 624.122449 720.128279 
L 644.827458 702.022771 
L 665.532468 693.00006 
L 686.237477 691.628332 
L 706.942486 693.17539 
L 727.647495 694.896301 
L 748.352505 697.130914 
L 769.057514 700.211926 
L 789.762523 702.873565 
L 810.467532 706.232503 
L 831.172542 706.718212 
L 851.877551 701.880863 
L 872.58256 693.272995 
L 893.28757 684.735524 
L 913.992579 679.55453 
L 934.697588 677.974857 
L 955.402597 675.752786 
L 976.107607 673.032493 
L 996.812616 670.284926 
L 1017.517625 667.256209 
L 1038.222635 662.446903 
L 1058.927644 655.498984 
L 1079.632653 647.738667 
L 1100.337662 643.250255 
L 1121.042672 645.796567 
L 1141.747681 654.929301 
L 1162.45269 661.11068 
L 1183.157699 664.681618 
L 1203.862709 674.872373 
L 1224.567718 683.993347 
L 1245.272727 658.344446 
" clip-path="url(#p6ee28c85b7)" style="fill: none; stroke-dasharray: 11.1,4.8; stroke-dashoffset: 0; stroke: #0000ff; stroke-width: 3"/>
   </g>
   <g id="line2d_30">
    <path d="M 230.727273 697.704645 
L 251.432282 711.089179 
L 272.137291 723.459888 
L 292.842301 737.748123 
L 313.54731 735.766461 
L 334.252319 731.840644 
L 354.957328 714.215999 
L 375.662338 705.773831 
L 396.367347 706.249053 
L 417.072356 713.668515 
L 437.777365 724.547071 
L 458.482375 735.162112 
L 479.187384 738.72 
L 499.892393 735.73358 
L 520.597403 726.271021 
L 541.302412 698.864744 
L 562.007421 658.697937 
L 582.71243 660.348816 
L 603.41744 677.782158 
L 624.122449 674.473372 
L 644.827458 673.029522 
L 665.532468 664.558517 
L 686.237477 656.4227 
L 706.942486 655.902734 
L 727.647495 660.032186 
L 748.352505 664.995838 
L 769.057514 675.38269 
L 789.762523 687.886295 
L 810.467532 693.798736 
L 831.172542 691.686582 
L 851.877551 682.964274 
L 872.58256 670.619673 
L 893.28757 658.781853 
L 913.992579 652.51812 
L 934.697588 653.241805 
L 955.402597 655.234014 
L 976.107607 658.281281 
L 996.812616 659.773746 
L 1017.517625 658.080899 
L 1038.222635 655.276208 
L 1058.927644 653.148339 
L 1079.632653 654.414454 
L 1100.337662 659.630557 
L 1121.042672 667.676249 
L 1141.747681 677.00967 
L 1162.45269 682.899792 
L 1183.157699 688.474353 
L 1203.862709 691.090125 
L 1224.567718 699.54387 
L 1245.272727 670.591151 
" clip-path="url(#p6ee28c85b7)" style="fill: none; stroke-dasharray: 19.2,4.8,3,4.8; stroke-dashoffset: 0; stroke: #bf00bf; stroke-width: 3"/>
   </g>
   <g id="line2d_31">
    <path d="M 230.727273 713.212796 
L 251.432282 644.865047 
L 272.137291 573.463439 
L 292.842301 509.782718 
L 313.54731 452.828146 
L 334.252319 410.051738 
L 354.957328 374.667351 
L 375.662338 341.03335 
L 396.367347 309.957959 
L 417.072356 282.794117 
L 437.777365 258.581137 
L 458.482375 237.128729 
L 479.187384 219.003 
L 499.892393 205.029846 
L 520.597403 195.838078 
L 541.302412 191.780338 
L 562.007421 186.124912 
L 582.71243 173.887441 
L 603.41744 159.582366 
L 624.122449 147.246234 
L 644.827458 139.622574 
L 665.532468 135.369024 
L 686.237477 133.92 
L 706.942486 134.496471 
L 727.647495 135.753527 
L 748.352505 136.42685 
L 769.057514 136.723059 
L 789.762523 136.608526 
L 810.467532 136.217846 
L 831.172542 135.968326 
L 851.877551 135.874674 
L 872.58256 135.902712 
L 893.28757 136.142019 
L 913.992579 136.666547 
L 934.697588 137.389297 
L 955.402597 138.126228 
L 976.107607 138.823132 
L 996.812616 139.311366 
L 1017.517625 139.399967 
L 1038.222635 139.257377 
L 1058.927644 138.963974 
L 1079.632653 138.67807 
L 1100.337662 138.63619 
L 1121.042672 139.128844 
L 1141.747681 140.103973 
L 1162.45269 141.45028 
L 1183.157699 143.040051 
L 1203.862709 143.841513 
L 1224.567718 141.685761 
L 1245.272727 138.690871 
" clip-path="url(#p6ee28c85b7)" style="fill: none; stroke-dasharray: 9,3,3,3,3,3; stroke-dashoffset: 0; stroke: #000000; stroke-width: 3"/>
   </g>
   <g id="patch_3">
    <path d="M 180 768.96 
L 180 103.68 
" style="fill: none; stroke: #000000; stroke-width: 0.8; stroke-linejoin: miter; stroke-linecap: square"/>
   </g>
   <g id="patch_4">
    <path d="M 1296 768.96 
L 1296 103.68 
" style="fill: none; stroke: #000000; stroke-width: 0.8; stroke-linejoin: miter; stroke-linecap: square"/>
   </g>
   <g id="patch_5">
    <path d="M 180 768.96 
L 1296 768.96 
" style="fill: none; stroke: #000000; stroke-width: 0.8; stroke-linejoin: miter; stroke-linecap: square"/>
   </g>
   <g id="patch_6">
    <path d="M 180 103.68 
L 1296 103.68 
" style="fill: none; stroke: #000000; stroke-width: 0.8; stroke-linejoin: miter; stroke-linecap: square"/>
   </g>
   <g id="text_16">
    <!--  Drinking water task -->
    <g transform="translate(496.102969 94.617188)scale(0.42 -0.42)">
     <defs>
      <path id="DejaVuSans-Bold-20" transform="scale(0.015625)"/>
      <path id="DejaVuSans-Bold-44" d="M 1791 3756 
L 1791 909 
L 2222 909 
Q 2959 909 3348 1275 
Q 3738 1641 3738 2338 
Q 3738 3031 3350 3393 
Q 2963 3756 2222 3756 
L 1791 3756 
z
M 588 4666 
L 1856 4666 
Q 2919 4666 3439 4514 
Q 3959 4363 4331 4000 
Q 4659 3684 4818 3271 
Q 4978 2859 4978 2338 
Q 4978 1809 4818 1395 
Q 4659 981 4331 666 
Q 3956 303 3431 151 
Q 2906 0 1856 0 
L 588 0 
L 588 4666 
z
" transform="scale(0.015625)"/>
      <path id="DejaVuSans-Bold-72" d="M 3138 2547 
Q 2991 2616 2845 2648 
Q 2700 2681 2553 2681 
Q 2122 2681 1889 2404 
Q 1656 2128 1656 1613 
L 1656 0 
L 538 0 
L 538 3500 
L 1656 3500 
L 1656 2925 
Q 1872 3269 2151 3426 
Q 2431 3584 2822 3584 
Q 2878 3584 2943 3579 
Q 3009 3575 3134 3559 
L 3138 2547 
z
" transform="scale(0.015625)"/>
      <path id="DejaVuSans-Bold-69" d="M 538 3500 
L 1656 3500 
L 1656 0 
L 538 0 
L 538 3500 
z
M 538 4863 
L 1656 4863 
L 1656 3950 
L 538 3950 
L 538 4863 
z
" transform="scale(0.015625)"/>
      <path id="DejaVuSans-Bold-6e" d="M 4056 2131 
L 4056 0 
L 2931 0 
L 2931 347 
L 2931 1631 
Q 2931 2084 2911 2256 
Q 2891 2428 2841 2509 
Q 2775 2619 2662 2680 
Q 2550 2741 2406 2741 
Q 2056 2741 1856 2470 
Q 1656 2200 1656 1722 
L 1656 0 
L 538 0 
L 538 3500 
L 1656 3500 
L 1656 2988 
Q 1909 3294 2193 3439 
Q 2478 3584 2822 3584 
Q 3428 3584 3742 3212 
Q 4056 2841 4056 2131 
z
" transform="scale(0.015625)"/>
      <path id="DejaVuSans-Bold-6b" d="M 538 4863 
L 1656 4863 
L 1656 2216 
L 2944 3500 
L 4244 3500 
L 2534 1894 
L 4378 0 
L 3022 0 
L 1656 1459 
L 1656 0 
L 538 0 
L 538 4863 
z
" transform="scale(0.015625)"/>
      <path id="DejaVuSans-Bold-67" d="M 2919 594 
Q 2688 288 2409 144 
Q 2131 0 1766 0 
Q 1125 0 706 504 
Q 288 1009 288 1791 
Q 288 2575 706 3076 
Q 1125 3578 1766 3578 
Q 2131 3578 2409 3434 
Q 2688 3291 2919 2981 
L 2919 3500 
L 4044 3500 
L 4044 353 
Q 4044 -491 3511 -936 
Q 2978 -1381 1966 -1381 
Q 1638 -1381 1331 -1331 
Q 1025 -1281 716 -1178 
L 716 -306 
Q 1009 -475 1290 -558 
Q 1572 -641 1856 -641 
Q 2406 -641 2662 -400 
Q 2919 -159 2919 353 
L 2919 594 
z
M 2181 2772 
Q 1834 2772 1640 2515 
Q 1447 2259 1447 1791 
Q 1447 1309 1634 1061 
Q 1822 813 2181 813 
Q 2531 813 2725 1069 
Q 2919 1325 2919 1791 
Q 2919 2259 2725 2515 
Q 2531 2772 2181 2772 
z
" transform="scale(0.015625)"/>
      <path id="DejaVuSans-Bold-77" d="M 225 3500 
L 1313 3500 
L 1900 1088 
L 2491 3500 
L 3425 3500 
L 4013 1113 
L 4603 3500 
L 5691 3500 
L 4769 0 
L 3547 0 
L 2956 2406 
L 2369 0 
L 1147 0 
L 225 3500 
z
" transform="scale(0.015625)"/>
      <path id="DejaVuSans-Bold-61" d="M 2106 1575 
Q 1756 1575 1579 1456 
Q 1403 1338 1403 1106 
Q 1403 894 1545 773 
Q 1688 653 1941 653 
Q 2256 653 2472 879 
Q 2688 1106 2688 1447 
L 2688 1575 
L 2106 1575 
z
M 3816 1997 
L 3816 0 
L 2688 0 
L 2688 519 
Q 2463 200 2181 54 
Q 1900 -91 1497 -91 
Q 953 -91 614 226 
Q 275 544 275 1050 
Q 275 1666 698 1953 
Q 1122 2241 2028 2241 
L 2688 2241 
L 2688 2328 
Q 2688 2594 2478 2717 
Q 2269 2841 1825 2841 
Q 1466 2841 1156 2769 
Q 847 2697 581 2553 
L 581 3406 
Q 941 3494 1303 3539 
Q 1666 3584 2028 3584 
Q 2975 3584 3395 3211 
Q 3816 2838 3816 1997 
z
" transform="scale(0.015625)"/>
      <path id="DejaVuSans-Bold-74" d="M 1759 4494 
L 1759 3500 
L 2913 3500 
L 2913 2700 
L 1759 2700 
L 1759 1216 
Q 1759 972 1856 886 
Q 1953 800 2241 800 
L 2816 800 
L 2816 0 
L 1856 0 
Q 1194 0 917 276 
Q 641 553 641 1216 
L 641 2700 
L 84 2700 
L 84 3500 
L 641 3500 
L 641 4494 
L 1759 4494 
z
" transform="scale(0.015625)"/>
      <path id="DejaVuSans-Bold-65" d="M 4031 1759 
L 4031 1441 
L 1416 1441 
Q 1456 1047 1700 850 
Q 1944 653 2381 653 
Q 2734 653 3104 758 
Q 3475 863 3866 1075 
L 3866 213 
Q 3469 63 3072 -14 
Q 2675 -91 2278 -91 
Q 1328 -91 801 392 
Q 275 875 275 1747 
Q 275 2603 792 3093 
Q 1309 3584 2216 3584 
Q 3041 3584 3536 3087 
Q 4031 2591 4031 1759 
z
M 2881 2131 
Q 2881 2450 2695 2645 
Q 2509 2841 2209 2841 
Q 1884 2841 1681 2658 
Q 1478 2475 1428 2131 
L 2881 2131 
z
" transform="scale(0.015625)"/>
      <path id="DejaVuSans-Bold-73" d="M 3272 3391 
L 3272 2541 
Q 2913 2691 2578 2766 
Q 2244 2841 1947 2841 
Q 1628 2841 1473 2761 
Q 1319 2681 1319 2516 
Q 1319 2381 1436 2309 
Q 1553 2238 1856 2203 
L 2053 2175 
Q 2913 2066 3209 1816 
Q 3506 1566 3506 1031 
Q 3506 472 3093 190 
Q 2681 -91 1863 -91 
Q 1516 -91 1145 -36 
Q 775 19 384 128 
L 384 978 
Q 719 816 1070 734 
Q 1422 653 1784 653 
Q 2113 653 2278 743 
Q 2444 834 2444 1013 
Q 2444 1163 2330 1236 
Q 2216 1309 1875 1350 
L 1678 1375 
Q 931 1469 631 1722 
Q 331 1975 331 2491 
Q 331 3047 712 3315 
Q 1094 3584 1881 3584 
Q 2191 3584 2531 3537 
Q 2872 3491 3272 3391 
z
" transform="scale(0.015625)"/>
     </defs>
     <use xlink:href="#DejaVuSans-Bold-20"/>
     <use xlink:href="#DejaVuSans-Bold-44" x="34.814453"/>
     <use xlink:href="#DejaVuSans-Bold-72" x="117.822266"/>
     <use xlink:href="#DejaVuSans-Bold-69" x="167.138672"/>
     <use xlink:href="#DejaVuSans-Bold-6e" x="201.416016"/>
     <use xlink:href="#DejaVuSans-Bold-6b" x="272.607422"/>
     <use xlink:href="#DejaVuSans-Bold-69" x="339.111328"/>
     <use xlink:href="#DejaVuSans-Bold-6e" x="373.388672"/>
     <use xlink:href="#DejaVuSans-Bold-67" x="444.580078"/>
     <use xlink:href="#DejaVuSans-Bold-20" x="516.162109"/>
     <use xlink:href="#DejaVuSans-Bold-77" x="550.976562"/>
     <use xlink:href="#DejaVuSans-Bold-61" x="643.359375"/>
     <use xlink:href="#DejaVuSans-Bold-74" x="710.839844"/>
     <use xlink:href="#DejaVuSans-Bold-65" x="758.642578"/>
     <use xlink:href="#DejaVuSans-Bold-72" x="826.464844"/>
     <use xlink:href="#DejaVuSans-Bold-20" x="875.78125"/>
     <use xlink:href="#DejaVuSans-Bold-74" x="910.595703"/>
     <use xlink:href="#DejaVuSans-Bold-61" x="958.398438"/>
     <use xlink:href="#DejaVuSans-Bold-73" x="1025.878906"/>
     <use xlink:href="#DejaVuSans-Bold-6b" x="1085.400391"/>
    </g>
   </g>
   <g id="legend_1">
    <g id="patch_7">
     <path d="M 1115.011719 570.003594 
L 1271.5 570.003594 
Q 1278.5 570.003594 1278.5 563.003594 
L 1278.5 309.636406 
Q 1278.5 302.636406 1271.5 302.636406 
L 1115.011719 302.636406 
Q 1108.011719 302.636406 1108.011719 309.636406 
L 1108.011719 563.003594 
Q 1108.011719 570.003594 1115.011719 570.003594 
z
" style="fill: #ffffff; opacity: 0.8; stroke: #cccccc; stroke-linejoin: miter"/>
    </g>
    <g id="line2d_32">
     <path d="M 1122.011719 330.980937 
L 1157.011719 330.980937 
L 1192.011719 330.980937 
" style="fill: none; stroke: #ff0000; stroke-width: 3; stroke-linecap: square"/>
    </g>
    <g id="text_17">
     <!-- q1 -->
     <g transform="translate(1220.011719 343.230937)scale(0.35 -0.35)">
      <defs>
       <path id="DejaVuSans-71" d="M 947 1747 
Q 947 1113 1208 752 
Q 1469 391 1925 391 
Q 2381 391 2643 752 
Q 2906 1113 2906 1747 
Q 2906 2381 2643 2742 
Q 2381 3103 1925 3103 
Q 1469 3103 1208 2742 
Q 947 2381 947 1747 
z
M 2906 525 
Q 2725 213 2448 61 
Q 2172 -91 1784 -91 
Q 1150 -91 751 415 
Q 353 922 353 1747 
Q 353 2572 751 3078 
Q 1150 3584 1784 3584 
Q 2172 3584 2448 3432 
Q 2725 3281 2906 2969 
L 2906 3500 
L 3481 3500 
L 3481 -1331 
L 2906 -1331 
L 2906 525 
z
" transform="scale(0.015625)"/>
      </defs>
      <use xlink:href="#DejaVuSans-71"/>
      <use xlink:href="#DejaVuSans-31" x="63.476562"/>
     </g>
    </g>
    <g id="line2d_33">
     <path d="M 1122.011719 382.354375 
L 1157.011719 382.354375 
L 1192.011719 382.354375 
" style="fill: none; stroke-dasharray: 3,4.95; stroke-dashoffset: 0; stroke: #008000; stroke-width: 3"/>
    </g>
    <g id="text_18">
     <!-- q2 -->
     <g transform="translate(1220.011719 394.604375)scale(0.35 -0.35)">
      <use xlink:href="#DejaVuSans-71"/>
      <use xlink:href="#DejaVuSans-32" x="63.476562"/>
     </g>
    </g>
    <g id="line2d_34">
     <path d="M 1122.011719 433.727812 
L 1157.011719 433.727812 
L 1192.011719 433.727812 
" style="fill: none; stroke-dasharray: 11.1,4.8; stroke-dashoffset: 0; stroke: #0000ff; stroke-width: 3"/>
    </g>
    <g id="text_19">
     <!-- q3 -->
     <g transform="translate(1220.011719 445.977812)scale(0.35 -0.35)">
      <use xlink:href="#DejaVuSans-71"/>
      <use xlink:href="#DejaVuSans-33" x="63.476562"/>
     </g>
    </g>
    <g id="line2d_35">
     <path d="M 1122.011719 485.10125 
L 1157.011719 485.10125 
L 1192.011719 485.10125 
" style="fill: none; stroke-dasharray: 19.2,4.8,3,4.8; stroke-dashoffset: 0; stroke: #bf00bf; stroke-width: 3"/>
    </g>
    <g id="text_20">
     <!-- q4 -->
     <g transform="translate(1220.011719 497.35125)scale(0.35 -0.35)">
      <use xlink:href="#DejaVuSans-71"/>
      <use xlink:href="#DejaVuSans-34" x="63.476562"/>
     </g>
    </g>
    <g id="line2d_36">
     <path d="M 1122.011719 536.474687 
L 1157.011719 536.474687 
L 1192.011719 536.474687 
" style="fill: none; stroke-dasharray: 9,3,3,3,3,3; stroke-dashoffset: 0; stroke: #000000; stroke-width: 3"/>
    </g>
    <g id="text_21">
     <!-- q5 -->
     <g transform="translate(1220.011719 548.724687)scale(0.35 -0.35)">
      <use xlink:href="#DejaVuSans-71"/>
      <use xlink:href="#DejaVuSans-35" x="63.476562"/>
     </g>
    </g>
   </g>
  </g>
 </g>
 <defs>
  <clipPath id="p6ee28c85b7">
   <rect x="180" y="103.68" width="1116" height="665.28"/>
  </clipPath>
 </defs>
</svg>
